<svg xmlns="http://www.w3.org/2000/svg" width="299.124" height="26.93" viewBox="0 0 299.12399 26.93"><path d="M240.698 16.77c-.034.513-.132 1.012-.298 1.5-.165.486-.396.92-.693 1.3-.446.562-1.045 1.04-1.795 1.437-.752.396-1.623.594-2.613.594-.992 0-1.876-.2-2.65-.606-.777-.404-1.388-.88-1.834-1.424-.48-.61-.833-1.313-1.064-2.105-.23-.793-.347-1.66-.347-2.6 0-.942.116-1.81.347-2.602.23-.793.585-1.495 1.064-2.105.446-.544 1.057-1.02 1.833-1.424.775-.404 1.658-.607 2.65-.607.99 0 1.86.198 2.612.595.75.396 1.35.875 1.795 1.437.297.38.528.812.693 1.3.166.486.264.986.298 1.497h-3.047c-.016-.23-.057-.446-.122-.644-.067-.198-.15-.38-.248-.544-.182-.282-.438-.513-.768-.694-.33-.18-.734-.273-1.213-.273-.43 0-.798.075-1.103.223-.306.148-.566.34-.78.57-.38.413-.62.908-.718 1.485-.1.58-.15 1.174-.15 1.785 0 .61.05 1.2.15 1.77.098.57.337 1.062.717 1.474.214.23.474.424.78.58.305.158.672.236 1.102.236.478 0 .882-.09 1.212-.273.33-.18.586-.412.768-.693.1-.166.18-.347.248-.545.065-.198.106-.413.123-.644h3.048zM253.6 14.987c-.016.116-.024.223-.024.322v.544h-8.62c0 .495.08.966.237 1.412.156.446.392.817.706 1.115.23.216.498.402.804.558.305.157.672.235 1.102.235.446 0 .813-.045 1.102-.136.29-.09.548-.252.78-.483.297-.297.503-.66.62-1.09h2.97c-.033.38-.16.797-.383 1.25-.223.455-.458.83-.706 1.127-.546.645-1.198 1.108-1.958 1.388-.76.28-1.553.42-2.377.42-.892 0-1.664-.144-2.316-.433-.654-.29-1.235-.673-1.747-1.15-.644-.628-1.135-1.38-1.474-2.255-.34-.875-.51-1.84-.51-2.898 0-1.04.154-2.002.46-2.885.305-.883.77-1.64 1.4-2.266.478-.495 1.06-.89 1.746-1.188.685-.297 1.473-.446 2.365-.446.96 0 1.85.194 2.676.582.825.39 1.502.987 2.03 1.796.48.71.785 1.433.918 2.167.13.736.197 1.508.197 2.317zm-3.095-1.387c-.016-.94-.28-1.692-.792-2.254-.215-.23-.483-.413-.805-.545-.322-.13-.706-.197-1.152-.197-.48 0-.9.09-1.263.273-.363.182-.66.42-.892.718-.23.28-.395.578-.494.892-.1.314-.157.685-.173 1.114h5.572zM263.632 21.328v-7.9c0-.76-.15-1.355-.446-1.784-.297-.43-.86-.644-1.684-.644-.545 0-1 .153-1.362.458-.363.306-.653.697-.867 1.176-.215.48-.34 1.036-.372 1.672-.032.636-.048 1.226-.048 1.77v5.252h-3.096V8.448h2.6l.224 1.66c.38-.678.92-1.177 1.623-1.5.702-.32 1.424-.482 2.167-.482.693 0 1.31.116 1.845.347.536.23.99.55 1.362.953.372.405.656.892.854 1.46.2.57.298 1.186.298 1.846v8.595h-3.096zM276.932 21.154c-.892.23-1.775.347-2.65.347-1.304 0-2.28-.35-2.922-1.05-.644-.703-.965-1.673-.965-2.91V11h-2.354V8.45h2.355V5.18l3.095-.77V8.45h3.245v2.55h-3.245v6.267c0 .495.116.854.347 1.078.23.223.594.334 1.09.334.33 0 .64-.008.93-.025.288-.016.647-.05 1.076-.1v2.602zM289.465 14.987c-.016.116-.024.223-.024.322v.544h-8.62c0 .495.08.966.236 1.412.157.446.392.817.705 1.115.232.216.5.402.806.558.306.157.674.235 1.103.235.445 0 .812-.045 1.102-.136.29-.09.55-.252.78-.483.296-.297.503-.66.62-1.09h2.97c-.032.38-.16.797-.383 1.25-.223.455-.46.83-.707 1.127-.544.645-1.197 1.108-1.957 1.388-.76.28-1.552.42-2.377.42-.893 0-1.666-.144-2.317-.433-.653-.29-1.234-.673-1.747-1.15-.644-.628-1.135-1.38-1.474-2.255-.338-.875-.508-1.84-.508-2.898 0-1.04.153-2.002.458-2.885.305-.883.77-1.64 1.4-2.266.478-.495 1.06-.89 1.746-1.188.685-.297 1.474-.446 2.366-.446.957 0 1.85.194 2.675.582.825.39 1.5.987 2.03 1.796.48.71.784 1.433.916 2.167.132.736.2 1.508.2 2.317zM286.37 13.6c-.02-.94-.283-1.692-.794-2.254-.215-.23-.483-.413-.805-.545-.32-.13-.705-.197-1.15-.197-.48 0-.9.09-1.264.273-.363.182-.66.42-.89.718-.232.28-.397.578-.497.892-.1.314-.158.685-.175 1.114h5.574zM299.124 11.32c-.38-.082-.735-.123-1.064-.123-1.09 0-1.917.346-2.478 1.04-.56.693-.84 1.56-.84 2.6v6.49h-3.122V8.447h2.626l.272 1.933c.297-.743.788-1.28 1.473-1.61.687-.33 1.41-.495 2.17-.495.312 0 .634.024.964.074v2.97z"/><g fill="#00aeef"><path d="M139.523 11.386c-.215-.23-.483-.413-.805-.546-.19-.078-.407-.125-.638-.157v2.957h2.237c-.017-.94-.282-1.692-.794-2.254zM221.515 11.633c-.23.282-.396.58-.495.892-.1.314-.157.686-.173 1.115h2.273v-2.95c-.257.045-.497.117-.713.225-.363.182-.66.42-.892.718zM185.45 10.84c-.32-.13-.705-.198-1.152-.198-.48 0-.9.09-1.264.273-.363.18-.66.42-.892.718-.23.282-.396.58-.496.892-.098.314-.156.686-.173 1.115h5.575c-.017-.94-.28-1.692-.793-2.254-.214-.23-.482-.413-.805-.546z"/><path d="M219.707 20.108c-.645-.627-1.136-1.378-1.475-2.255-.337-.875-.508-1.842-.508-2.9 0-1.04.153-2 .46-2.885.304-.884.77-1.64 1.398-2.268.48-.495 1.06-.892 1.748-1.19.533-.23 1.13-.37 1.79-.42V0h-85.04v8.19c.773.056 1.503.237 2.187.557.827.39 1.503.988 2.032 1.797.478.71.783 1.433.916 2.168.132.735.198 1.508.198 2.316-.016.116-.024.224-.024.323v.545h-5.31v3.295c.24-.02.46-.054.64-.11.288-.09.548-.25.78-.483.296-.297.503-.66.62-1.09h2.972c-.033.38-.16.797-.384 1.25-.222.456-.458.832-.706 1.128-.545.645-1.2 1.107-1.958 1.388-.63.233-1.286.364-1.963.403v5.254h85.04v-5.264c-.622-.055-1.176-.19-1.666-.406-.653-.29-1.236-.673-1.747-1.152zm-61.636-1.834c-.272.595-.622 1.107-1.053 1.537-.676.678-1.5 1.16-2.465 1.45-.967.29-1.995.435-3.085.435-.94 0-1.87-.137-2.788-.41-.918-.272-1.74-.74-2.466-1.4-.528-.48-.966-1.07-1.313-1.772-.346-.702-.52-1.474-.52-2.316h3.27c0 .43.088.83.26 1.202.175.37.393.69.66.952.378.38.836.632 1.373.756s1.062.186 1.574.186c.61 0 1.188-.07 1.735-.21.544-.14.982-.385 1.313-.732.198-.214.364-.44.496-.68.133-.24.198-.575.198-1.004 0-.645-.21-1.128-.632-1.45-.42-.322-.904-.533-1.45-.63-.594-.117-1.247-.2-1.957-.25-.71-.05-1.355-.124-1.934-.222-.61-.1-1.185-.273-1.72-.52-.54-.25-1.01-.575-1.415-.98-.403-.404-.726-.892-.965-1.462-.24-.57-.36-1.218-.36-1.945 0-.695.14-1.33.422-1.91.28-.578.652-1.098 1.115-1.56.578-.58 1.32-1.032 2.23-1.364.908-.33 1.883-.495 2.924-.495.94 0 1.845.146 2.713.435.867.29 1.597.714 2.192 1.276.528.497.954 1.058 1.276 1.686.32.627.49 1.313.507 2.056h-3.27c-.017-.313-.096-.624-.236-.93-.14-.305-.32-.573-.533-.805-.282-.297-.678-.528-1.19-.693-.512-.165-1.008-.25-1.486-.25-.495 0-1.003.067-1.522.2-.52.132-.963.39-1.327.768-.182.198-.326.413-.432.644-.107.232-.162.512-.162.842 0 .58.166 1.02.496 1.326.33.306.76.5 1.29.582.56.083 1.192.157 1.895.223.702.066 1.342.14 1.92.223.66.1 1.284.276 1.87.532.586.256 1.1.595 1.537 1.016.438.422.784.93 1.04 1.525.258.595.385 1.264.385 2.007 0 .828-.137 1.538-.41 2.132zm4.82-1.598c.098.57.338 1.062.718 1.475.214.232.476.426.78.584.305.157.673.235 1.103.235.48 0 .885-.09 1.215-.273.33-.18.587-.414.77-.693.097-.166.18-.347.247-.546.065-.197.106-.413.123-.644h3.05c-.035.513-.134 1.013-.3 1.5-.164.487-.396.92-.692 1.3-.447.562-1.046 1.04-1.797 1.438-.752.396-1.623.595-2.614.595-.99 0-1.875-.203-2.65-.607-.777-.404-1.39-.88-1.835-1.425-.48-.61-.834-1.313-1.065-2.105-.23-.793-.347-1.66-.347-2.603 0-.942.115-1.81.347-2.6.23-.794.585-1.496 1.065-2.108.446-.546 1.058-1.02 1.834-1.425.777-.405 1.66-.607 2.652-.607.99 0 1.862.198 2.614.595.75.396 1.35.876 1.797 1.437.296.38.528.814.693 1.3.165.488.264.988.298 1.5h-3.05c-.016-.23-.057-.446-.122-.645-.066-.198-.15-.38-.248-.544-.182-.28-.438-.51-.77-.694-.33-.18-.734-.272-1.213-.272-.43 0-.797.075-1.102.224-.305.148-.566.34-.78.57-.38.413-.62.908-.72 1.486-.097.58-.147 1.173-.147 1.784 0 .608.05 1.198.15 1.768zm13.207 4.695h-3.147V8.487h3.147V21.37zm.074-14.667h-3.32V3.506h3.32v3.197zm13.95 8.648v.545H181.5c0 .496.08.967.235 1.413.157.447.393.818.707 1.115.23.215.5.4.805.557.305.158.673.235 1.103.235.446 0 .813-.045 1.102-.136.29-.09.55-.252.782-.484.297-.297.503-.66.62-1.09h2.973c-.034.38-.16.797-.384 1.25-.222.455-.458.832-.706 1.128-.545.645-1.197 1.107-1.958 1.388-.76.28-1.553.422-2.38.422-.89 0-1.663-.146-2.315-.435-.652-.29-1.234-.674-1.746-1.153-.644-.627-1.135-1.378-1.475-2.255-.34-.875-.51-1.842-.51-2.9 0-1.04.153-2 .46-2.885.304-.884.77-1.64 1.4-2.268.478-.496 1.06-.893 1.747-1.19.685-.298 1.473-.446 2.365-.446.958 0 1.85.194 2.677.582.824.39 1.5.988 2.03 1.797.48.71.785 1.433.917 2.168.132.736.198 1.51.198 2.317-.015.117-.024.224-.024.324zm13.16 6.02h-3.1V13.47c0-.76-.147-1.354-.445-1.785-.298-.43-.86-.644-1.684-.644-.545 0-1 .15-1.363.456-.363.306-.653.7-.867 1.177-.215.48-.34 1.037-.372 1.673-.034.636-.05 1.227-.05 1.77v5.253h-3.097V8.485h2.604l.222 1.66c.38-.677.92-1.177 1.623-1.5.7-.322 1.424-.482 2.167-.482.694 0 1.31.116 1.846.347.537.232.992.55 1.363.954.372.406.656.893.854 1.463.2.57.298 1.186.298 1.845v8.6zm5.326-4.694c.098.57.338 1.062.718 1.475.215.232.475.426.78.584.307.157.674.235 1.104.235.48 0 .884-.09 1.214-.273.33-.18.585-.414.77-.693.098-.166.18-.347.247-.546.064-.197.105-.413.123-.644h3.048c-.033.513-.13 1.013-.297 1.5-.165.487-.396.92-.693 1.3-.447.562-1.044 1.04-1.796 1.438-.752.396-1.623.595-2.614.595-.992 0-1.875-.203-2.652-.607-.776-.404-1.388-.88-1.833-1.425-.48-.61-.834-1.313-1.066-2.105-.233-.793-.348-1.66-.348-2.603 0-.942.115-1.81.347-2.6.23-.794.585-1.496 1.065-2.108.445-.546 1.057-1.02 1.833-1.425s1.66-.607 2.652-.607c.99 0 1.862.198 2.614.595.752.396 1.35.876 1.796 1.437.297.38.528.814.693 1.3.167.488.265.988.298 1.5h-3.047c-.017-.23-.058-.446-.124-.645-.068-.198-.15-.38-.25-.544-.182-.28-.438-.51-.768-.694-.33-.18-.735-.272-1.214-.272-.43 0-.797.075-1.103.224-.306.148-.565.34-.78.57-.38.413-.62.908-.72 1.486-.098.58-.148 1.173-.148 1.784 0 .608.05 1.198.15 1.768z"/><path d="M221.107 17.308c.156.447.392.818.706 1.115.23.215.5.4.805.557.15.078.32.137.502.176v-3.26h-2.25c0 .495.08.966.237 1.412z"/></g><g><path d="M7.885 21.33v-7.91c0-.76-.15-1.355-.446-1.785-.298-.43-.86-.645-1.687-.645-.545 0-1 .153-1.364.458-.365.306-.654.698-.87 1.178-.214.48-.338 1.037-.37 1.673-.034.635-.05 1.226-.05 1.77v5.256H0V8.438h2.603l.223 1.66c.38-.676.92-1.176 1.624-1.5.703-.322 1.426-.482 2.17-.482.693 0 1.31.116 1.846.347.537.232.992.55 1.363.955.37.405.656.893.854 1.462.198.57.297 1.186.297 1.847v8.602H7.886zM24.817 14.982c-.017.116-.025.223-.025.322v.545h-8.627c0 .495.078.966.235 1.412.157.446.393.818.707 1.115.23.215.5.4.806.558.306.157.673.235 1.104.235.446 0 .813-.045 1.103-.136.29-.09.55-.252.78-.483.298-.296.505-.66.62-1.09h2.976c-.033.38-.16.797-.384 1.252-.223.455-.458.83-.707 1.128-.545.645-1.198 1.107-1.958 1.388-.76.28-1.554.42-2.38.42-.892 0-1.665-.144-2.318-.433-.654-.29-1.236-.673-1.75-1.153-.644-.628-1.136-1.38-1.474-2.256-.34-.876-.508-1.843-.508-2.9 0-1.042.153-2.004.46-2.888.304-.884.77-1.64 1.4-2.27.478-.495 1.06-.89 1.747-1.19.686-.296 1.475-.445 2.368-.445.958 0 1.85.194 2.677.583.826.388 1.504.988 2.033 1.797.48.71.785 1.434.917 2.17.13.737.197 1.51.197 2.32zm-3.1-1.388c-.016-.942-.28-1.694-.792-2.256-.215-.23-.483-.413-.806-.545-.324-.132-.708-.198-1.154-.198-.48 0-.9.09-1.264.272-.364.182-.66.42-.893.72-.232.28-.397.578-.497.892-.1.313-.157.685-.174 1.115h5.578zM34.137 21.155c-.892.23-1.776.347-2.652.347-1.306 0-2.28-.35-2.925-1.053-.644-.703-.967-1.674-.967-2.914v-6.544h-2.355V8.44h2.355V5.166l3.1-.77V8.44h3.247v2.552h-3.248v6.272c0 .496.116.855.347 1.078.23.223.594.335 1.09.335.33 0 .64-.008.93-.025.29-.016.648-.05 1.078-.1v2.603zM43.905 21.33v-7.96c0-.743-.15-1.33-.446-1.76-.298-.43-.86-.644-1.687-.644-.463 0-.864.112-1.203.335-.34.224-.616.51-.83.856-.215.347-.372.73-.47 1.153-.1.42-.15.83-.15 1.226v6.792h-3.1V3.43h3.1V9.8c.38-.544.893-.96 1.537-1.25.645-.29 1.305-.435 1.983-.435.694 0 1.31.116 1.847.347.537.232.992.554 1.363.967.372.413.657.9.855 1.462.198.562.297 1.173.297 1.834v8.602h-3.097zM60.836 14.982c-.017.116-.025.223-.025.322v.545h-8.626c0 .495.078.966.235 1.412.156.446.392.818.706 1.115.23.215.5.4.806.558.306.157.673.235 1.104.235.446 0 .813-.045 1.103-.136.288-.09.548-.252.78-.483.297-.296.504-.66.62-1.09h2.975c-.033.38-.16.797-.384 1.252-.222.455-.457.83-.706 1.128-.545.645-1.198 1.107-1.958 1.388-.76.28-1.554.42-2.38.42-.892 0-1.665-.144-2.318-.433-.653-.29-1.235-.673-1.748-1.153-.645-.628-1.137-1.38-1.475-2.256-.34-.876-.508-1.843-.508-2.9 0-1.042.153-2.004.46-2.888.304-.884.77-1.64 1.4-2.27.478-.495 1.06-.89 1.747-1.19.686-.296 1.475-.445 2.368-.445.958 0 1.85.194 2.677.583.825.388 1.503.988 2.032 1.797.48.71.785 1.434.917 2.17.13.737.196 1.51.196 2.32zm-3.098-1.388c-.017-.942-.28-1.694-.793-2.256-.215-.23-.483-.413-.806-.545-.324-.132-.708-.198-1.154-.198-.48 0-.9.09-1.264.272-.364.182-.66.42-.893.72-.232.28-.397.578-.497.892-.1.313-.157.685-.174 1.115h5.578zM70.504 11.313c-.38-.083-.735-.124-1.066-.124-1.09 0-1.917.346-2.48 1.04-.56.694-.842 1.562-.842 2.603v6.495h-3.124V8.438h2.628l.272 1.934c.297-.744.79-1.28 1.475-1.61.686-.332 1.41-.497 2.17-.497.313 0 .635.025.966.074v2.973zM76.85 21.304c-.314.066-.542.112-.682.136-.14.025-.368.038-.682.038-1.058 0-1.91-.273-2.553-.818-.644-.545-.967-1.43-.967-2.652V3.405h3.124v14.08c0 .38.074.683.223.906.148.224.487.335 1.016.335.13 0 .23-.004.297-.012.065-.008.14-.013.223-.013v2.604zM90.013 21.18c-.265.116-.492.202-.682.26-.19.058-.475.087-.854.087-.678 0-1.198-.182-1.562-.545-.364-.363-.57-.785-.62-1.264-.297.53-.793.983-1.487 1.363-.694.38-1.504.57-2.43.57-.776 0-1.454-.11-2.032-.333-.58-.223-1.063-.52-1.45-.893-.39-.372-.682-.8-.88-1.29-.198-.486-.297-.995-.297-1.524 0-.61.11-1.156.334-1.636.223-.48.533-.893.93-1.24s.86-.615 1.388-.806c.53-.19 1.1-.31 1.71-.36l3.793-.272v-.793c0-.61-.145-1.103-.434-1.475-.29-.372-.873-.558-1.75-.558-.727 0-1.292.157-1.697.47-.405.315-.624.77-.657 1.365h-3c.05-.727.22-1.355.508-1.884.29-.528.673-.96 1.153-1.3.48-.34 1.033-.59 1.66-.756.63-.165 1.307-.248 2.034-.248 1.108 0 2.096.194 2.963.583.867.388 1.49 1.07 1.872 2.044.165.414.268.843.31 1.29.04.445.062.883.062 1.313v4.785c0 .297.054.508.16.632.108.124.294.186.56.186.13 0 .222-.008.27-.025.05 0 .092-.008.125-.024v2.28zm-4.14-5.578l-3.272.248c-.478.033-.908.19-1.288.47-.38.282-.57.687-.57 1.216 0 .496.186.89.558 1.178.372.29.797.434 1.277.434.975 0 1.768-.25 2.38-.756.61-.504.917-1.235.917-2.194v-.596zM99.855 21.33v-7.91c0-.76-.15-1.355-.446-1.785-.298-.43-.86-.645-1.687-.645-.545 0-1 .153-1.364.458-.365.306-.654.698-.87 1.178-.214.48-.338 1.037-.37 1.673-.034.635-.05 1.226-.05 1.77v5.256h-3.1V8.438h2.603l.223 1.66c.38-.676.92-1.176 1.624-1.5.703-.322 1.426-.482 2.17-.482.693 0 1.31.116 1.846.347.537.232.992.55 1.363.955.37.405.656.893.854 1.462.198.57.297 1.186.297 1.847v8.602h-3.095zM114.233 21.33l-.2-1.414c-.38.595-.9 1.03-1.56 1.302-.662.272-1.348.41-2.06.41-.644 0-1.23-.1-1.76-.298-.528-.198-.99-.462-1.387-.793-.777-.628-1.35-1.417-1.723-2.367-.372-.95-.558-2.037-.558-3.26 0-2.562.77-4.48 2.306-5.75.397-.332.856-.587 1.377-.77.52-.182 1.11-.272 1.772-.272.825 0 1.523.12 2.094.36.57.238.996.524 1.276.854v-5.9h3.1V21.33h-2.677zm-.273-6.472c0-.462-.037-.938-.11-1.425-.076-.487-.22-.934-.435-1.34-.215-.404-.512-.734-.893-.99-.38-.257-.876-.385-1.487-.385-.48 0-.89.1-1.227.298-.34.198-.624.438-.855.72-.33.43-.55.916-.657 1.46-.107.546-.16 1.1-.16 1.662 0 .562.053 1.12.16 1.673.107.554.326 1.046.657 1.476.23.28.516.52.855.72.338.197.748.296 1.227.296.61 0 1.107-.127 1.487-.384.38-.256.678-.586.893-.99.215-.406.36-.856.434-1.352.073-.496.11-.975.11-1.438zM130.05 17.337c0 .628-.105 1.174-.31 1.636-.208.463-.477.86-.807 1.19-.53.53-1.174.91-1.934 1.14-.76.23-1.587.347-2.48.347-.826 0-1.595-.12-2.305-.36-.71-.238-1.33-.615-1.86-1.127-.38-.363-.702-.8-.966-1.314-.266-.513-.397-1.075-.397-1.687h2.9c0 .28.066.562.198.843.133.28.298.504.497.67.248.197.524.342.83.433.307.09.683.135 1.13.135.263 0 .548-.02.854-.062.307-.04.592-.12.856-.235.264-.115.483-.28.657-.496.173-.215.26-.496.26-.843 0-.38-.116-.687-.347-.918-.23-.23-.545-.38-.942-.446-.58-.083-1.174-.152-1.785-.21-.612-.058-1.208-.153-1.786-.285-.446-.098-.847-.255-1.202-.47-.356-.214-.666-.475-.93-.78-.265-.307-.467-.646-.607-1.018-.14-.372-.21-.764-.21-1.177 0-.66.123-1.227.37-1.698.25-.47.563-.872.943-1.202.48-.413 1.05-.73 1.71-.955.66-.224 1.396-.334 2.207-.334.776 0 1.524.124 2.243.372.72.248 1.318.628 1.797 1.14.347.38.624.798.83 1.252.208.455.31.922.31 1.4h-2.95c0-.247-.048-.47-.148-.668-.1-.198-.223-.38-.372-.545-.182-.182-.426-.326-.73-.434-.307-.107-.625-.16-.955-.16-.232 0-.455.007-.67.023-.214.017-.437.075-.668.174-.28.116-.517.29-.707.52-.19.232-.285.514-.285.844 0 .463.16.78.483.955.322.172.657.284 1.004.333.298.033.545.062.744.087l.596.074c.198.025.405.054.62.087l.793.125c1.023.166 1.866.558 2.527 1.177.66.62.992 1.44.992 2.465z"/></g></svg>