<?xml version="1.0" encoding="UTF-8" standalone="no"?>
<!-- Generator: Adobe Illustrator 16.0.3, SVG Export Plug-In . SVG Version: 6.00 Build 0)  -->

<svg
   xmlns:dc="http://purl.org/dc/elements/1.1/"
   xmlns:cc="http://creativecommons.org/ns#"
   xmlns:rdf="http://www.w3.org/1999/02/22-rdf-syntax-ns#"
   xmlns:svg="http://www.w3.org/2000/svg"
   xmlns="http://www.w3.org/2000/svg"
   xmlns:sodipodi="http://sodipodi.sourceforge.net/DTD/sodipodi-0.dtd"
   xmlns:inkscape="http://www.inkscape.org/namespaces/inkscape"
   version="1.1"
   id="Layer_1"
   x="0px"
   y="0px"
   width="299.12399"
   height="26.93"
   viewBox="0 0 299.12399 26.93"
   enable-background="new 0 0 1190.551 841.89"
   xml:space="preserve"
   inkscape:version="0.91 r13725"
   sodipodi:docname="ESCIENCE_logo_B_nl_long_cyanblack.svg"><metadata
     id="metadata57"><rdf:RDF><cc:Work
         rdf:about=""><dc:format>image/svg+xml</dc:format><dc:type
           rdf:resource="http://purl.org/dc/dcmitype/StillImage" /><dc:title></dc:title></cc:Work></rdf:RDF></metadata><defs
     id="defs55" /><sodipodi:namedview
     pagecolor="#ffffff"
     bordercolor="#666666"
     borderopacity="1"
     objecttolerance="10"
     gridtolerance="10"
     guidetolerance="10"
     inkscape:pageopacity="0"
     inkscape:pageshadow="2"
     inkscape:window-width="1643"
     inkscape:window-height="830"
     id="namedview53"
     showgrid="false"
     fit-margin-top="0"
     fit-margin-left="0"
     fit-margin-right="0"
     fit-margin-bottom="0"
     inkscape:zoom="1.9553971"
     inkscape:cx="143.24424"
     inkscape:cy="25.634061"
     inkscape:window-x="0"
     inkscape:window-y="0"
     inkscape:window-maximized="0"
     inkscape:current-layer="Layer_1" /><g
     id="g3"
     transform="translate(-102.865,-42.52)"><path
       d="m 343.563,59.291 c -0.034,0.512 -0.132,1.011 -0.298,1.498 -0.165,0.487 -0.396,0.921 -0.693,1.301 -0.446,0.562 -1.045,1.04 -1.795,1.437 -0.752,0.396 -1.623,0.594 -2.613,0.594 -0.991,0 -1.875,-0.202 -2.65,-0.607 -0.776,-0.404 -1.387,-0.879 -1.833,-1.424 -0.479,-0.611 -0.833,-1.313 -1.064,-2.105 -0.231,-0.793 -0.347,-1.66 -0.347,-2.601 0,-0.941 0.116,-1.809 0.347,-2.601 0.231,-0.793 0.585,-1.495 1.064,-2.105 0.446,-0.544 1.057,-1.019 1.833,-1.424 0.776,-0.404 1.659,-0.607 2.65,-0.607 0.991,0 1.861,0.198 2.613,0.595 0.75,0.396 1.349,0.875 1.795,1.437 0.297,0.38 0.528,0.813 0.693,1.3 0.166,0.487 0.264,0.987 0.298,1.498 l -3.047,0 c -0.017,-0.231 -0.058,-0.446 -0.123,-0.644 -0.067,-0.198 -0.149,-0.379 -0.248,-0.544 -0.182,-0.281 -0.438,-0.512 -0.768,-0.693 -0.33,-0.181 -0.734,-0.273 -1.213,-0.273 -0.43,0 -0.797,0.075 -1.102,0.223 -0.306,0.148 -0.566,0.339 -0.78,0.57 -0.38,0.413 -0.619,0.908 -0.718,1.485 -0.1,0.579 -0.148,1.173 -0.148,1.784 0,0.611 0.049,1.201 0.148,1.771 0.099,0.569 0.338,1.061 0.718,1.473 0.214,0.231 0.474,0.425 0.78,0.582 0.305,0.157 0.672,0.235 1.102,0.235 0.479,0 0.883,-0.09 1.213,-0.273 0.33,-0.181 0.586,-0.412 0.768,-0.693 0.099,-0.166 0.181,-0.347 0.248,-0.545 0.065,-0.198 0.106,-0.413 0.123,-0.644 l 3.047,0 z"
       id="path5"
       inkscape:connector-curvature="0" /><path
       d="m 356.466,57.507 c -0.017,0.116 -0.025,0.223 -0.025,0.322 l 0,0.545 -8.619,0 c 0,0.495 0.079,0.966 0.236,1.412 0.156,0.446 0.392,0.817 0.706,1.115 0.231,0.215 0.499,0.401 0.805,0.557 0.305,0.157 0.672,0.235 1.102,0.235 0.446,0 0.813,-0.045 1.102,-0.136 0.289,-0.091 0.548,-0.252 0.78,-0.483 0.297,-0.297 0.503,-0.66 0.619,-1.089 l 2.972,0 c -0.034,0.38 -0.161,0.796 -0.384,1.25 -0.223,0.454 -0.458,0.83 -0.706,1.126 -0.545,0.644 -1.197,1.107 -1.957,1.387 -0.76,0.281 -1.553,0.421 -2.377,0.421 -0.892,0 -1.664,-0.145 -2.316,-0.434 -0.653,-0.289 -1.234,-0.673 -1.746,-1.151 -0.644,-0.627 -1.135,-1.378 -1.474,-2.254 -0.338,-0.875 -0.508,-1.841 -0.508,-2.898 0,-1.04 0.153,-2.002 0.459,-2.885 0.305,-0.883 0.771,-1.639 1.399,-2.266 0.479,-0.496 1.061,-0.892 1.747,-1.189 0.685,-0.297 1.473,-0.446 2.365,-0.446 0.958,0 1.85,0.194 2.675,0.582 0.825,0.389 1.502,0.987 2.031,1.796 0.479,0.71 0.784,1.433 0.917,2.167 0.131,0.735 0.197,1.507 0.197,2.316 z M 353.37,56.12 c -0.016,-0.941 -0.281,-1.692 -0.792,-2.254 -0.215,-0.231 -0.483,-0.413 -0.805,-0.545 -0.322,-0.131 -0.706,-0.198 -1.152,-0.198 -0.479,0 -0.9,0.091 -1.263,0.273 -0.363,0.182 -0.66,0.421 -0.892,0.718 -0.231,0.281 -0.396,0.578 -0.495,0.892 -0.099,0.314 -0.157,0.685 -0.173,1.114 l 5.572,0 z"
       id="path7"
       inkscape:connector-curvature="0" /><path
       d="m 366.497,63.848 0,-7.901 c 0,-0.759 -0.149,-1.354 -0.446,-1.783 -0.297,-0.429 -0.859,-0.644 -1.684,-0.644 -0.545,0 -1,0.153 -1.362,0.458 -0.363,0.306 -0.653,0.697 -0.867,1.176 -0.215,0.479 -0.339,1.036 -0.372,1.672 -0.033,0.636 -0.049,1.226 -0.049,1.771 l 0,5.251 -3.096,0 0,-12.88 2.601,0 0.223,1.659 c 0.379,-0.677 0.92,-1.176 1.623,-1.498 0.702,-0.322 1.424,-0.483 2.167,-0.483 0.693,0 1.309,0.116 1.845,0.347 0.536,0.231 0.991,0.549 1.362,0.953 0.372,0.405 0.656,0.892 0.854,1.461 0.198,0.57 0.297,1.185 0.297,1.845 l 0,8.595 -3.096,0 z"
       id="path9"
       inkscape:connector-curvature="0" /><path
       d="m 379.797,63.674 c -0.892,0.231 -1.775,0.347 -2.65,0.347 -1.304,0 -2.279,-0.351 -2.922,-1.052 -0.644,-0.702 -0.965,-1.672 -0.965,-2.91 l 0,-6.539 -2.354,0 0,-2.551 2.354,0 0,-3.27 3.095,-0.768 0,4.037 3.245,0 0,2.551 -3.245,0 0,6.266 c 0,0.495 0.116,0.854 0.347,1.078 0.231,0.223 0.594,0.334 1.09,0.334 0.33,0 0.639,-0.008 0.929,-0.025 0.289,-0.016 0.648,-0.049 1.077,-0.099 l 0,2.601 z"
       id="path11"
       inkscape:connector-curvature="0" /><path
       d="m 392.33,57.507 c -0.016,0.116 -0.024,0.223 -0.024,0.322 l 0,0.545 -8.62,0 c 0,0.495 0.078,0.966 0.235,1.412 0.157,0.446 0.392,0.817 0.705,1.115 0.231,0.215 0.5,0.401 0.805,0.557 0.306,0.157 0.674,0.235 1.103,0.235 0.446,0 0.813,-0.045 1.103,-0.136 0.289,-0.091 0.549,-0.252 0.78,-0.483 0.296,-0.297 0.503,-0.66 0.619,-1.089 l 2.972,0 c -0.033,0.38 -0.161,0.796 -0.384,1.25 -0.222,0.454 -0.458,0.83 -0.706,1.126 -0.544,0.644 -1.197,1.107 -1.957,1.387 -0.76,0.281 -1.552,0.421 -2.377,0.421 -0.892,0 -1.665,-0.145 -2.316,-0.434 -0.653,-0.289 -1.234,-0.673 -1.747,-1.151 -0.644,-0.627 -1.135,-1.378 -1.474,-2.254 -0.338,-0.875 -0.508,-1.841 -0.508,-2.898 0,-1.04 0.153,-2.002 0.458,-2.885 0.305,-0.883 0.771,-1.639 1.4,-2.266 0.478,-0.496 1.061,-0.892 1.746,-1.189 0.685,-0.297 1.474,-0.446 2.366,-0.446 0.957,0 1.849,0.194 2.675,0.582 0.826,0.389 1.502,0.987 2.031,1.796 0.479,0.71 0.784,1.433 0.916,2.167 0.132,0.735 0.199,1.507 0.199,2.316 z m -3.096,-1.387 c -0.018,-0.941 -0.282,-1.692 -0.793,-2.254 -0.215,-0.231 -0.483,-0.413 -0.805,-0.545 -0.322,-0.131 -0.706,-0.198 -1.151,-0.198 -0.479,0 -0.901,0.091 -1.264,0.273 -0.363,0.182 -0.661,0.421 -0.891,0.718 -0.231,0.281 -0.396,0.578 -0.496,0.892 -0.1,0.314 -0.157,0.685 -0.174,1.114 l 5.574,0 z"
       id="path13"
       inkscape:connector-curvature="0" /><path
       d="m 401.989,53.841 c -0.38,-0.083 -0.735,-0.124 -1.064,-0.124 -1.09,0 -1.917,0.346 -2.478,1.04 -0.561,0.693 -0.841,1.561 -0.841,2.6 l 0,6.49 -3.121,0 0,-12.879 2.626,0 0.272,1.932 c 0.297,-0.743 0.788,-1.279 1.473,-1.61 0.686,-0.33 1.408,-0.495 2.168,-0.495 0.313,0 0.635,0.024 0.965,0.074 l 0,2.972 z"
       id="path15"
       inkscape:connector-curvature="0" /></g><g
     id="g17"
     transform="translate(-102.865,-42.52)"><path
       d="m 242.388,53.906 c -0.215,-0.231 -0.483,-0.413 -0.805,-0.546 -0.19,-0.078 -0.407,-0.125 -0.638,-0.157 l 0,2.957 2.237,0 c -0.017,-0.941 -0.282,-1.692 -0.794,-2.254 z"
       id="path19"
       inkscape:connector-curvature="0"
       style="fill:#00aeef" /><path
       d="m 324.38,54.153 c -0.231,0.282 -0.396,0.579 -0.495,0.892 -0.099,0.314 -0.157,0.686 -0.173,1.115 l 2.273,0 0,-2.95 c -0.257,0.045 -0.497,0.117 -0.713,0.225 -0.363,0.182 -0.661,0.421 -0.892,0.718 z"
       id="path21"
       inkscape:connector-curvature="0"
       style="fill:#00aeef" /><path
       d="m 288.315,53.36 c -0.321,-0.131 -0.705,-0.198 -1.152,-0.198 -0.479,0 -0.9,0.091 -1.264,0.273 -0.363,0.181 -0.661,0.42 -0.892,0.718 -0.231,0.282 -0.396,0.579 -0.496,0.892 -0.098,0.314 -0.156,0.686 -0.173,1.115 l 5.575,0 c -0.017,-0.941 -0.281,-1.692 -0.793,-2.254 -0.214,-0.231 -0.482,-0.413 -0.805,-0.546 z"
       id="path23"
       inkscape:connector-curvature="0"
       style="fill:#00aeef" /><path
       d="m 322.572,62.628 c -0.645,-0.627 -1.136,-1.378 -1.475,-2.255 -0.337,-0.875 -0.508,-1.842 -0.508,-2.899 0,-1.041 0.153,-2.002 0.459,-2.886 0.305,-0.884 0.772,-1.64 1.399,-2.268 0.479,-0.495 1.061,-0.892 1.748,-1.189 0.533,-0.232 1.131,-0.371 1.79,-0.422 l 0,-8.189 -85.04,0 0,8.19 c 0.773,0.056 1.503,0.237 2.187,0.557 0.827,0.389 1.503,0.988 2.032,1.797 0.479,0.71 0.784,1.433 0.917,2.168 0.132,0.735 0.198,1.508 0.198,2.316 -0.016,0.116 -0.024,0.224 -0.024,0.323 l 0,0.544 -5.309,0 0,3.295 c 0.239,-0.021 0.459,-0.054 0.638,-0.11 0.289,-0.09 0.549,-0.251 0.78,-0.483 0.297,-0.297 0.504,-0.661 0.62,-1.089 l 2.973,0 c -0.033,0.379 -0.161,0.796 -0.384,1.25 -0.222,0.455 -0.458,0.831 -0.706,1.127 -0.545,0.645 -1.199,1.107 -1.958,1.388 -0.631,0.233 -1.286,0.364 -1.963,0.403 l 0,5.254 85.04,0 0,-5.264 c -0.623,-0.055 -1.177,-0.19 -1.667,-0.406 -0.653,-0.289 -1.236,-0.673 -1.747,-1.152 z m -61.636,-1.834 c -0.273,0.595 -0.623,1.107 -1.054,1.537 -0.676,0.677 -1.499,1.16 -2.465,1.449 -0.967,0.289 -1.995,0.435 -3.085,0.435 -0.941,0 -1.87,-0.137 -2.788,-0.41 -0.917,-0.272 -1.738,-0.739 -2.465,-1.4 -0.528,-0.479 -0.966,-1.069 -1.313,-1.772 -0.347,-0.702 -0.521,-1.474 -0.521,-2.316 l 3.271,0 c 0,0.43 0.087,0.831 0.26,1.202 0.174,0.372 0.392,0.69 0.658,0.953 0.379,0.38 0.837,0.632 1.374,0.756 0.537,0.124 1.062,0.186 1.574,0.186 0.61,0 1.188,-0.071 1.735,-0.211 0.544,-0.14 0.982,-0.384 1.313,-0.731 0.198,-0.214 0.364,-0.441 0.496,-0.681 0.132,-0.239 0.197,-0.574 0.197,-1.003 0,-0.645 -0.21,-1.128 -0.632,-1.45 -0.421,-0.322 -0.904,-0.533 -1.449,-0.631 -0.595,-0.116 -1.248,-0.199 -1.958,-0.249 -0.71,-0.049 -1.354,-0.124 -1.933,-0.222 -0.611,-0.1 -1.185,-0.273 -1.721,-0.521 -0.538,-0.248 -1.008,-0.574 -1.414,-0.979 -0.404,-0.404 -0.727,-0.892 -0.966,-1.462 -0.239,-0.57 -0.359,-1.218 -0.359,-1.945 0,-0.694 0.14,-1.33 0.421,-1.908 0.28,-0.579 0.652,-1.099 1.115,-1.561 0.578,-0.579 1.321,-1.032 2.23,-1.364 0.908,-0.33 1.883,-0.495 2.924,-0.495 0.941,0 1.845,0.145 2.713,0.434 0.868,0.289 1.598,0.714 2.193,1.276 0.528,0.496 0.954,1.057 1.276,1.685 0.321,0.627 0.49,1.313 0.507,2.056 l -3.271,0 c -0.016,-0.313 -0.095,-0.624 -0.235,-0.929 -0.14,-0.306 -0.318,-0.574 -0.532,-0.806 -0.282,-0.297 -0.678,-0.528 -1.19,-0.693 -0.512,-0.165 -1.008,-0.249 -1.486,-0.249 -0.496,0 -1.004,0.066 -1.523,0.199 -0.521,0.132 -0.963,0.389 -1.327,0.768 -0.183,0.198 -0.327,0.413 -0.433,0.644 -0.107,0.232 -0.162,0.512 -0.162,0.842 0,0.579 0.166,1.021 0.496,1.326 0.331,0.306 0.76,0.5 1.289,0.582 0.562,0.083 1.193,0.157 1.896,0.223 0.702,0.067 1.342,0.141 1.92,0.224 0.661,0.099 1.284,0.276 1.87,0.532 0.586,0.256 1.099,0.595 1.537,1.016 0.438,0.421 0.784,0.929 1.041,1.524 0.257,0.595 0.384,1.264 0.384,2.007 0.001,0.828 -0.136,1.538 -0.408,2.132 z m 4.818,-1.598 c 0.099,0.57 0.339,1.062 0.719,1.475 0.214,0.231 0.476,0.425 0.78,0.583 0.305,0.157 0.673,0.235 1.103,0.235 0.479,0 0.884,-0.09 1.214,-0.272 0.331,-0.181 0.587,-0.414 0.769,-0.693 0.098,-0.166 0.181,-0.347 0.248,-0.546 0.065,-0.197 0.106,-0.413 0.123,-0.644 l 3.049,0 c -0.034,0.513 -0.133,1.013 -0.298,1.499 -0.165,0.488 -0.397,0.921 -0.693,1.301 -0.447,0.562 -1.046,1.041 -1.797,1.438 -0.752,0.396 -1.623,0.595 -2.614,0.595 -0.991,0 -1.875,-0.203 -2.651,-0.607 -0.776,-0.404 -1.388,-0.879 -1.834,-1.425 -0.48,-0.611 -0.834,-1.313 -1.065,-2.105 -0.231,-0.793 -0.347,-1.661 -0.347,-2.603 0,-0.942 0.115,-1.809 0.347,-2.601 0.231,-0.793 0.585,-1.495 1.065,-2.107 0.446,-0.545 1.058,-1.02 1.834,-1.424 0.776,-0.405 1.66,-0.607 2.651,-0.607 0.991,0 1.862,0.198 2.614,0.595 0.751,0.396 1.35,0.876 1.797,1.437 0.296,0.38 0.528,0.814 0.693,1.3 0.165,0.488 0.264,0.988 0.298,1.5 l -3.049,0 c -0.017,-0.231 -0.058,-0.446 -0.123,-0.645 -0.066,-0.198 -0.149,-0.379 -0.248,-0.544 -0.182,-0.281 -0.438,-0.512 -0.769,-0.695 -0.33,-0.181 -0.735,-0.272 -1.214,-0.272 -0.43,0 -0.798,0.075 -1.103,0.224 -0.305,0.148 -0.566,0.339 -0.78,0.569 -0.38,0.414 -0.62,0.909 -0.719,1.487 -0.098,0.579 -0.148,1.173 -0.148,1.784 0,0.608 0.05,1.198 0.148,1.768 z m 13.208,4.695 -3.147,0 0,-12.885 3.147,0 0,12.885 z m 0.074,-14.668 -3.32,0 0,-3.197 3.32,0 0,3.197 z m 13.95,8.648 0,0.544 -8.623,0 c 0,0.496 0.079,0.967 0.235,1.413 0.157,0.447 0.393,0.818 0.707,1.115 0.231,0.215 0.499,0.4 0.805,0.557 0.305,0.158 0.673,0.235 1.103,0.235 0.446,0 0.813,-0.045 1.102,-0.136 0.289,-0.09 0.549,-0.251 0.782,-0.483 0.297,-0.297 0.503,-0.661 0.619,-1.089 l 2.974,0 c -0.034,0.379 -0.161,0.796 -0.384,1.25 -0.223,0.454 -0.459,0.831 -0.707,1.127 -0.545,0.645 -1.197,1.107 -1.958,1.388 -0.759,0.281 -1.553,0.422 -2.379,0.422 -0.892,0 -1.664,-0.146 -2.316,-0.435 -0.653,-0.289 -1.235,-0.673 -1.747,-1.152 -0.644,-0.627 -1.135,-1.378 -1.475,-2.255 -0.338,-0.875 -0.508,-1.842 -0.508,-2.899 0,-1.041 0.152,-2.002 0.458,-2.886 0.305,-0.884 0.772,-1.64 1.4,-2.268 0.479,-0.495 1.061,-0.892 1.748,-1.189 0.685,-0.298 1.473,-0.446 2.365,-0.446 0.958,0 1.851,0.194 2.677,0.582 0.825,0.389 1.502,0.988 2.031,1.797 0.479,0.71 0.785,1.433 0.917,2.168 0.132,0.735 0.198,1.508 0.198,2.316 -0.015,0.117 -0.024,0.224 -0.024,0.324 z m 13.158,6.02 -3.098,0 0,-7.903 c 0,-0.761 -0.148,-1.354 -0.446,-1.785 -0.298,-0.429 -0.859,-0.644 -1.684,-0.644 -0.546,0 -1,0.152 -1.364,0.457 -0.363,0.306 -0.653,0.699 -0.867,1.177 -0.215,0.48 -0.339,1.037 -0.372,1.673 -0.034,0.636 -0.049,1.227 -0.049,1.771 l 0,5.252 -3.098,0 0,-12.883 2.603,0 0.222,1.66 c 0.379,-0.677 0.92,-1.177 1.623,-1.499 0.702,-0.323 1.425,-0.483 2.168,-0.483 0.694,0 1.31,0.116 1.846,0.347 0.537,0.231 0.992,0.549 1.363,0.953 0.372,0.406 0.656,0.893 0.854,1.463 0.199,0.569 0.298,1.186 0.298,1.845 l 0,8.599 z m 5.327,-4.695 c 0.098,0.57 0.338,1.062 0.718,1.475 0.215,0.231 0.475,0.425 0.781,0.583 0.306,0.157 0.673,0.235 1.103,0.235 0.479,0 0.884,-0.09 1.214,-0.272 0.33,-0.181 0.585,-0.414 0.769,-0.693 0.099,-0.166 0.181,-0.347 0.248,-0.546 0.065,-0.197 0.106,-0.413 0.124,-0.644 l 3.048,0 c -0.034,0.513 -0.132,1.013 -0.298,1.499 -0.165,0.488 -0.396,0.921 -0.693,1.301 -0.447,0.562 -1.044,1.041 -1.796,1.438 -0.752,0.396 -1.623,0.595 -2.614,0.595 -0.992,0 -1.875,-0.203 -2.652,-0.607 -0.776,-0.404 -1.388,-0.879 -1.833,-1.425 -0.479,-0.611 -0.834,-1.313 -1.066,-2.105 -0.232,-0.793 -0.347,-1.661 -0.347,-2.603 0,-0.942 0.115,-1.809 0.347,-2.601 0.231,-0.793 0.586,-1.495 1.066,-2.107 0.445,-0.545 1.057,-1.02 1.833,-1.424 0.776,-0.405 1.66,-0.607 2.652,-0.607 0.991,0 1.862,0.198 2.614,0.595 0.752,0.396 1.35,0.876 1.796,1.437 0.297,0.38 0.528,0.814 0.693,1.3 0.167,0.488 0.265,0.988 0.298,1.5 l -3.048,0 c -0.017,-0.231 -0.058,-0.446 -0.124,-0.645 -0.067,-0.198 -0.148,-0.379 -0.248,-0.544 -0.183,-0.281 -0.439,-0.512 -0.769,-0.695 -0.331,-0.181 -0.735,-0.272 -1.214,-0.272 -0.43,0 -0.797,0.075 -1.103,0.224 -0.306,0.148 -0.565,0.339 -0.781,0.569 -0.379,0.414 -0.62,0.909 -0.718,1.487 -0.099,0.579 -0.149,1.173 -0.149,1.784 0,0.608 0.05,1.198 0.149,1.768 z"
       id="path25"
       inkscape:connector-curvature="0"
       style="fill:#00aeef" /><path
       d="m 323.972,59.828 c 0.156,0.447 0.392,0.818 0.706,1.115 0.231,0.215 0.499,0.4 0.805,0.557 0.151,0.078 0.319,0.137 0.502,0.176 l 0,-3.261 -2.249,0 c 0,0.496 0.079,0.967 0.236,1.413 z"
       id="path27"
       inkscape:connector-curvature="0"
       style="fill:#00aeef" /></g><g
     id="g29"
     transform="translate(-102.865,-42.52)"><path
       d="m 110.75,63.849 0,-7.909 c 0,-0.76 -0.149,-1.355 -0.446,-1.785 -0.297,-0.43 -0.859,-0.645 -1.686,-0.645 -0.545,0 -1,0.153 -1.364,0.458 -0.364,0.306 -0.653,0.698 -0.868,1.178 -0.215,0.48 -0.339,1.037 -0.372,1.673 -0.033,0.636 -0.05,1.227 -0.05,1.772 l 0,5.255 -3.099,0 0,-12.888 2.603,0 0.223,1.661 c 0.38,-0.677 0.921,-1.177 1.624,-1.5 0.703,-0.323 1.426,-0.483 2.169,-0.483 0.694,0 1.31,0.116 1.847,0.347 0.537,0.232 0.992,0.55 1.363,0.955 0.372,0.405 0.657,0.893 0.855,1.462 0.198,0.57 0.297,1.186 0.297,1.847 l 0,8.602 -3.096,0 z"
       id="path31"
       inkscape:connector-curvature="0" /><path
       d="m 127.682,57.502 c -0.017,0.116 -0.025,0.223 -0.025,0.322 l 0,0.545 -8.627,0 c 0,0.496 0.078,0.967 0.235,1.413 0.157,0.446 0.393,0.818 0.707,1.115 0.231,0.215 0.5,0.401 0.806,0.558 0.306,0.157 0.673,0.235 1.104,0.235 0.446,0 0.813,-0.045 1.103,-0.136 0.289,-0.091 0.549,-0.252 0.781,-0.483 0.297,-0.297 0.504,-0.661 0.62,-1.091 l 2.975,0 c -0.033,0.38 -0.161,0.797 -0.384,1.252 -0.223,0.455 -0.458,0.831 -0.707,1.128 -0.545,0.645 -1.198,1.107 -1.958,1.388 -0.76,0.281 -1.554,0.421 -2.38,0.421 -0.892,0 -1.665,-0.145 -2.318,-0.434 -0.653,-0.289 -1.235,-0.673 -1.748,-1.153 -0.645,-0.628 -1.137,-1.38 -1.475,-2.256 -0.339,-0.876 -0.508,-1.843 -0.508,-2.9 0,-1.042 0.153,-2.004 0.459,-2.888 0.305,-0.884 0.772,-1.64 1.4,-2.269 0.479,-0.496 1.062,-0.892 1.748,-1.19 0.686,-0.297 1.475,-0.446 2.368,-0.446 0.958,0 1.851,0.194 2.677,0.583 0.826,0.388 1.504,0.988 2.033,1.797 0.479,0.711 0.785,1.434 0.917,2.169 0.13,0.738 0.197,1.511 0.197,2.32 z m -3.099,-1.388 c -0.017,-0.942 -0.281,-1.694 -0.793,-2.256 -0.215,-0.231 -0.483,-0.413 -0.806,-0.545 -0.323,-0.132 -0.707,-0.198 -1.153,-0.198 -0.479,0 -0.901,0.091 -1.264,0.272 -0.364,0.182 -0.661,0.421 -0.893,0.719 -0.231,0.281 -0.396,0.579 -0.496,0.893 -0.099,0.314 -0.157,0.686 -0.174,1.116 l 5.579,0 z"
       id="path33"
       inkscape:connector-curvature="0" /><path
       d="m 137.002,63.675 c -0.892,0.231 -1.776,0.347 -2.652,0.347 -1.306,0 -2.281,-0.351 -2.925,-1.053 -0.644,-0.702 -0.967,-1.673 -0.967,-2.913 l 0,-6.544 -2.355,0 0,-2.553 2.355,0 0,-3.272 3.099,-0.769 0,4.041 3.248,0 0,2.553 -3.248,0 0,6.272 c 0,0.496 0.116,0.855 0.347,1.078 0.231,0.223 0.595,0.335 1.091,0.335 0.331,0 0.64,-0.008 0.93,-0.025 0.289,-0.016 0.648,-0.05 1.078,-0.099 l 0,2.602 z"
       id="path35"
       inkscape:connector-curvature="0" /><path
       d="m 146.77,63.849 0,-7.958 c 0,-0.744 -0.149,-1.33 -0.446,-1.76 -0.297,-0.43 -0.859,-0.645 -1.686,-0.645 -0.463,0 -0.864,0.112 -1.203,0.335 -0.339,0.223 -0.616,0.508 -0.83,0.855 -0.215,0.347 -0.372,0.731 -0.471,1.153 -0.099,0.422 -0.149,0.831 -0.149,1.227 l 0,6.792 -3.099,0 0,-17.898 3.099,0 0,6.371 c 0.38,-0.545 0.893,-0.962 1.537,-1.252 0.645,-0.289 1.305,-0.434 1.983,-0.434 0.694,0 1.31,0.116 1.847,0.347 0.537,0.232 0.992,0.554 1.363,0.967 0.372,0.414 0.657,0.901 0.855,1.463 0.198,0.562 0.297,1.173 0.297,1.834 l 0,8.602 -3.097,0 z"
       id="path37"
       inkscape:connector-curvature="0" /><path
       d="m 163.701,57.502 c -0.017,0.116 -0.025,0.223 -0.025,0.322 l 0,0.545 -8.627,0 c 0,0.496 0.078,0.967 0.235,1.413 0.157,0.446 0.393,0.818 0.707,1.115 0.231,0.215 0.5,0.401 0.806,0.558 0.306,0.157 0.673,0.235 1.104,0.235 0.446,0 0.813,-0.045 1.103,-0.136 0.289,-0.091 0.549,-0.252 0.781,-0.483 0.297,-0.297 0.504,-0.661 0.62,-1.091 l 2.975,0 c -0.033,0.38 -0.161,0.797 -0.384,1.252 -0.223,0.455 -0.458,0.831 -0.707,1.128 -0.545,0.645 -1.198,1.107 -1.958,1.388 -0.76,0.281 -1.554,0.421 -2.38,0.421 -0.892,0 -1.665,-0.145 -2.318,-0.434 -0.653,-0.289 -1.235,-0.673 -1.748,-1.153 -0.645,-0.628 -1.137,-1.38 -1.475,-2.256 -0.339,-0.876 -0.508,-1.843 -0.508,-2.9 0,-1.042 0.153,-2.004 0.459,-2.888 0.305,-0.884 0.772,-1.64 1.4,-2.269 0.479,-0.496 1.062,-0.892 1.748,-1.19 0.686,-0.297 1.475,-0.446 2.368,-0.446 0.958,0 1.851,0.194 2.677,0.583 0.826,0.388 1.504,0.988 2.033,1.797 0.479,0.711 0.785,1.434 0.917,2.169 0.131,0.738 0.197,1.511 0.197,2.32 z m -3.098,-1.388 c -0.017,-0.942 -0.281,-1.694 -0.793,-2.256 -0.215,-0.231 -0.483,-0.413 -0.806,-0.545 -0.323,-0.132 -0.707,-0.198 -1.153,-0.198 -0.479,0 -0.901,0.091 -1.264,0.272 -0.364,0.182 -0.661,0.421 -0.893,0.719 -0.231,0.281 -0.396,0.579 -0.496,0.893 -0.099,0.314 -0.157,0.686 -0.174,1.116 l 5.579,0 z"
       id="path39"
       inkscape:connector-curvature="0" /><path
       d="m 173.369,53.833 c -0.38,-0.083 -0.735,-0.124 -1.066,-0.124 -1.091,0 -1.917,0.347 -2.479,1.041 -0.562,0.694 -0.843,1.562 -0.843,2.603 l 0,6.495 -3.124,0 0,-12.89 2.628,0 0.272,1.934 c 0.297,-0.744 0.789,-1.281 1.475,-1.611 0.686,-0.331 1.409,-0.496 2.169,-0.496 0.314,0 0.636,0.025 0.967,0.074 l 0,2.974 z"
       id="path41"
       inkscape:connector-curvature="0" /><path
       d="m 179.715,63.824 c -0.314,0.066 -0.542,0.112 -0.682,0.136 -0.141,0.025 -0.368,0.038 -0.682,0.038 -1.058,0 -1.909,-0.273 -2.553,-0.818 -0.644,-0.545 -0.967,-1.429 -0.967,-2.652 l 0,-14.603 3.124,0 0,14.081 c 0,0.38 0.074,0.682 0.223,0.905 0.148,0.223 0.487,0.334 1.016,0.334 0.132,0 0.231,-0.004 0.298,-0.012 0.065,-0.008 0.14,-0.013 0.223,-0.013 l 0,2.604 z"
       id="path43"
       inkscape:connector-curvature="0" /><path
       d="m 192.878,63.7 c -0.265,0.116 -0.492,0.202 -0.682,0.26 -0.19,0.058 -0.476,0.087 -0.855,0.087 -0.678,0 -1.198,-0.182 -1.562,-0.545 -0.364,-0.363 -0.57,-0.785 -0.62,-1.264 -0.297,0.529 -0.793,0.983 -1.487,1.363 -0.694,0.38 -1.504,0.57 -2.429,0.57 -0.777,0 -1.455,-0.111 -2.033,-0.334 -0.579,-0.223 -1.063,-0.521 -1.45,-0.893 -0.389,-0.372 -0.682,-0.801 -0.88,-1.289 -0.198,-0.487 -0.297,-0.996 -0.297,-1.525 0,-0.611 0.111,-1.156 0.334,-1.636 0.223,-0.48 0.533,-0.893 0.93,-1.24 0.397,-0.347 0.859,-0.615 1.388,-0.806 0.529,-0.19 1.099,-0.31 1.71,-0.359 l 3.793,-0.273 0,-0.793 c 0,-0.611 -0.145,-1.103 -0.434,-1.475 -0.29,-0.372 -0.872,-0.558 -1.748,-0.558 -0.728,0 -1.293,0.157 -1.698,0.471 -0.405,0.314 -0.624,0.769 -0.657,1.364 l -3,0 c 0.05,-0.727 0.219,-1.355 0.508,-1.884 0.289,-0.529 0.673,-0.962 1.153,-1.301 0.479,-0.339 1.033,-0.591 1.661,-0.756 0.628,-0.165 1.306,-0.248 2.033,-0.248 1.107,0 2.095,0.194 2.962,0.583 0.867,0.389 1.491,1.07 1.872,2.045 0.165,0.414 0.268,0.843 0.31,1.289 0.041,0.446 0.062,0.884 0.062,1.314 l 0,4.785 c 0,0.297 0.054,0.508 0.161,0.632 0.107,0.124 0.293,0.186 0.558,0.186 0.132,0 0.223,-0.008 0.272,-0.025 0.05,0 0.091,-0.008 0.124,-0.024 l 0,2.279 z m -4.14,-5.578 -3.272,0.248 c -0.479,0.033 -0.909,0.19 -1.289,0.471 -0.38,0.281 -0.57,0.686 -0.57,1.215 0,0.496 0.186,0.889 0.558,1.178 0.372,0.289 0.797,0.434 1.277,0.434 0.975,0 1.768,-0.251 2.38,-0.756 0.611,-0.504 0.917,-1.235 0.917,-2.194 l 0,-0.596 z"
       id="path45"
       inkscape:connector-curvature="0" /><path
       d="m 202.72,63.849 0,-7.909 c 0,-0.76 -0.149,-1.355 -0.446,-1.785 -0.297,-0.43 -0.859,-0.645 -1.686,-0.645 -0.545,0 -1,0.153 -1.364,0.458 -0.364,0.306 -0.653,0.698 -0.868,1.178 -0.215,0.48 -0.339,1.037 -0.372,1.673 -0.033,0.636 -0.05,1.227 -0.05,1.772 l 0,5.255 -3.099,0 0,-12.888 2.603,0 0.223,1.661 c 0.38,-0.677 0.921,-1.177 1.624,-1.5 0.703,-0.323 1.426,-0.483 2.169,-0.483 0.694,0 1.31,0.116 1.847,0.347 0.537,0.232 0.992,0.55 1.363,0.955 0.372,0.405 0.657,0.893 0.855,1.462 0.198,0.57 0.297,1.186 0.297,1.847 l 0,8.602 -3.096,0 z"
       id="path47"
       inkscape:connector-curvature="0" /><path
       d="m 217.098,63.849 -0.199,-1.413 c -0.38,0.595 -0.901,1.029 -1.562,1.302 -0.661,0.272 -1.347,0.409 -2.058,0.409 -0.645,0 -1.231,-0.099 -1.76,-0.297 -0.529,-0.198 -0.991,-0.462 -1.388,-0.793 -0.777,-0.628 -1.351,-1.417 -1.723,-2.367 -0.372,-0.95 -0.558,-2.037 -0.558,-3.26 0,-2.562 0.769,-4.479 2.306,-5.751 0.396,-0.331 0.855,-0.586 1.376,-0.769 0.521,-0.182 1.111,-0.272 1.772,-0.272 0.826,0 1.524,0.12 2.095,0.359 0.571,0.239 0.996,0.525 1.276,0.855 l 0,-5.9 3.099,0 0,17.898 -2.676,0 z m -0.273,-6.471 c 0,-0.462 -0.037,-0.938 -0.111,-1.425 -0.075,-0.487 -0.219,-0.934 -0.434,-1.339 -0.215,-0.405 -0.512,-0.735 -0.893,-0.992 -0.38,-0.256 -0.876,-0.384 -1.487,-0.384 -0.479,0 -0.889,0.099 -1.227,0.298 -0.339,0.198 -0.624,0.438 -0.855,0.719 -0.331,0.43 -0.55,0.917 -0.657,1.462 -0.107,0.545 -0.161,1.1 -0.161,1.661 0,0.562 0.054,1.12 0.161,1.673 0.107,0.553 0.326,1.045 0.657,1.475 0.231,0.281 0.516,0.521 0.855,0.719 0.338,0.198 0.748,0.297 1.227,0.297 0.611,0 1.107,-0.127 1.487,-0.384 0.38,-0.256 0.678,-0.586 0.893,-0.991 0.215,-0.405 0.359,-0.855 0.434,-1.351 0.074,-0.496 0.111,-0.975 0.111,-1.438 z"
       id="path49"
       inkscape:connector-curvature="0" /><path
       d="m 232.914,59.857 c 0,0.628 -0.104,1.174 -0.31,1.636 -0.207,0.463 -0.476,0.859 -0.806,1.19 -0.529,0.529 -1.174,0.909 -1.934,1.14 -0.76,0.231 -1.586,0.347 -2.479,0.347 -0.826,0 -1.595,-0.12 -2.305,-0.359 -0.711,-0.239 -1.331,-0.616 -1.859,-1.128 -0.38,-0.363 -0.703,-0.801 -0.967,-1.314 -0.265,-0.512 -0.396,-1.074 -0.396,-1.686 l 2.9,0 c 0,0.281 0.066,0.562 0.198,0.843 0.132,0.281 0.297,0.504 0.496,0.669 0.248,0.198 0.524,0.343 0.831,0.434 0.306,0.091 0.682,0.136 1.128,0.136 0.264,0 0.549,-0.021 0.855,-0.062 0.306,-0.041 0.591,-0.12 0.855,-0.235 0.264,-0.115 0.483,-0.281 0.657,-0.496 0.173,-0.215 0.26,-0.496 0.26,-0.843 0,-0.38 -0.116,-0.686 -0.347,-0.917 -0.231,-0.231 -0.545,-0.38 -0.942,-0.446 -0.579,-0.083 -1.174,-0.152 -1.785,-0.21 -0.611,-0.058 -1.207,-0.153 -1.785,-0.285 -0.446,-0.099 -0.847,-0.256 -1.202,-0.471 -0.356,-0.214 -0.666,-0.475 -0.93,-0.781 -0.265,-0.306 -0.467,-0.645 -0.607,-1.017 -0.141,-0.372 -0.211,-0.764 -0.211,-1.177 0,-0.661 0.124,-1.227 0.372,-1.698 0.248,-0.471 0.562,-0.872 0.942,-1.202 0.479,-0.413 1.049,-0.731 1.71,-0.955 0.661,-0.224 1.396,-0.334 2.207,-0.334 0.776,0 1.524,0.124 2.243,0.372 0.719,0.248 1.318,0.628 1.797,1.141 0.347,0.38 0.624,0.797 0.831,1.251 0.207,0.455 0.31,0.922 0.31,1.401 l -2.95,0 c 0,-0.248 -0.049,-0.471 -0.149,-0.669 -0.099,-0.198 -0.223,-0.38 -0.372,-0.545 -0.182,-0.182 -0.426,-0.326 -0.731,-0.434 -0.306,-0.107 -0.624,-0.161 -0.954,-0.161 -0.232,0 -0.455,0.008 -0.669,0.024 -0.215,0.017 -0.438,0.075 -0.669,0.174 -0.281,0.116 -0.517,0.289 -0.707,0.521 -0.19,0.231 -0.285,0.513 -0.285,0.843 0,0.463 0.161,0.781 0.483,0.955 0.322,0.173 0.657,0.285 1.004,0.334 0.298,0.033 0.545,0.062 0.744,0.087 0.199,0.025 0.397,0.05 0.595,0.074 0.198,0.025 0.405,0.054 0.62,0.087 0.215,0.033 0.479,0.074 0.793,0.124 1.024,0.166 1.867,0.558 2.528,1.177 0.661,0.619 0.992,1.441 0.992,2.465 z"
       id="path51"
       inkscape:connector-curvature="0" /></g></svg>